<svg width="389" height="378" viewBox="0 0 389 378" fill="none" xmlns="http://www.w3.org/2000/svg">
<g id="imagen 1" clip-path="url(#clip0_2_3)">
<g id="imagen">
<g id="hombre">
<path id="Vector" d="M180.768 46.6074C105.565 64.4018 93.2432 120.034 81.8553 170.525C70.4674 221.017 27.6579 268.219 113.948 288.31C200.238 308.401 328.433 281.081 349.808 201.096C371.184 121.111 289.202 129.04 230.852 103.95C172.502 78.8601 214.077 38.745 180.768 46.6074Z" fill="#E7ECFF"/>
<path id="Vector_2" d="M210.799 74.2679C201.317 79.172 196.027 51.6632 207.065 40.8807C218.102 30.0983 237.417 24.57 245.138 34.02C252.86 43.47 235.102 58.3821 225.163 63.7875C215.224 69.1929 214.339 72.4341 210.799 74.2679Z" fill="#E7ECFF"/>
<path id="Vector_3" d="M96.7928 98.5638C97.065 79.3709 52.4664 96.6738 39.2209 132.177C25.9755 167.681 38.0637 193.527 56.0744 194.67C74.0852 195.813 76.5845 175.931 82.0691 148.252C87.5538 120.573 96.6373 109.346 96.7928 98.5638Z" fill="#E7ECFF"/>
<path id="Vector_4" d="M317.278 308.004C324.406 295.029 335.756 290.805 343.652 292.61C351.549 294.415 343.837 318.966 332.731 319.92C321.625 320.875 312.931 315.904 317.278 308.004Z" fill="#E7ECFF"/>
<g id="Vector_5" style="mix-blend-mode:multiply">
<g id="Vector_6" style="mix-blend-mode:multiply">
<path d="M41.0492 295.719L43.3832 322.576C43.3832 322.576 36.1964 328.302 30.6726 328.302C30.6726 328.302 28.9513 317.208 41.0492 295.719Z" fill="#4B81EE"/>
</g>
</g>
<path id="Vector_6_2" d="M258.588 369.864C249.616 370.547 240.59 370.07 231.747 368.446C223.545 366.745 215.603 364.027 208.115 360.357L206.267 349.074C206.267 349.074 219.805 334.076 235.754 340.947C251.703 347.817 258.588 369.864 258.588 369.864Z" fill="#4B81EE"/>
<path id="Vector_7" d="M131.093 147.826C114.249 150.416 106.032 163.891 105.672 171.111C105.312 178.331 111.069 206.01 113.034 213.447C114.998 220.884 129.372 228.633 134.429 229.833C139.254 230.822 144.282 230.186 148.685 228.029C152.857 226.139 162.806 217.851 164.897 210.527C166.988 203.203 167.601 169.193 164.897 160.716C162.193 152.24 144.902 145.691 131.093 147.826Z" fill="url(#paint0_linear_2_3)"/>
<path id="Vector_8" d="M125.452 225.789L126.308 257.399C126.308 257.399 130.013 278.803 141.538 279.512C155.969 280.457 157.632 255.594 157.632 255.594L155.366 223.341C155.366 223.341 146.993 230.325 139.349 230.315C131.706 230.306 125.452 225.789 125.452 225.789Z" fill="url(#paint1_linear_2_3)"/>
<path id="Vector_9" style="mix-blend-mode:multiply" d="M107.948 171.111C107.948 171.111 111.312 156.851 131.035 155.745C150.757 154.64 158.43 161.009 161.036 165.555C163.642 170.1 166.93 177.906 166.93 177.906L166.016 156.171L153.597 150.501C153.597 150.501 127.553 148.185 118.091 152.693C108.628 157.201 107.733 163.485 107.948 171.111Z" fill="url(#paint2_linear_2_3)"/>
<path id="Vector_10" d="M166.677 185.296C167.546 184.456 168.578 183.792 169.713 183.343C170.848 182.893 172.064 182.667 173.29 182.678C173.29 182.678 176.052 184.889 174.262 190.521C172.726 195.492 168.836 201.984 168.097 203.6C167.866 204.078 167.529 204.5 167.11 204.837C166.692 205.173 166.201 205.416 165.675 205.547C165.675 205.547 166.735 192.062 166.677 185.296Z" fill="url(#paint3_linear_2_3)"/>
<path id="Vector_11" d="M107.948 189.558C107.057 188.903 105.971 188.549 104.855 188.549C103.739 188.549 102.652 188.903 101.763 189.558C102.406 193.026 103.443 196.414 104.855 199.66C107.286 205.386 108.57 209.318 111.983 209.28L107.948 189.558Z" fill="url(#paint4_linear_2_3)"/>
<path id="Vector_12" style="mix-blend-mode:multiply" d="M166.686 191.599C166.686 191.599 170.693 187.488 172.784 187.082C174.875 186.675 173.377 192.478 172.093 195.502C170.81 198.526 170.664 198.809 170.664 198.809C170.664 198.809 173.251 191.466 172.463 189.813C171.676 188.159 170.353 188.868 170.304 189.539C170.255 190.21 171.676 193.791 169.701 197.325C167.727 200.86 167.484 201.758 166.939 199.924C166.395 198.091 168.087 195.095 168.135 193.309C168.184 191.523 166.686 191.599 166.686 191.599Z" fill="url(#paint5_linear_2_3)"/>
<path id="Vector_13" style="mix-blend-mode:multiply" d="M109.037 194.67C109.037 194.67 105.672 192.175 104.388 192.837C103.105 193.498 104.69 199.612 107.568 204.564C107.568 204.564 104.592 197.76 105.623 196.144C106.654 194.528 109.047 197.335 107.938 197.458C104.602 197.836 106.362 202.476 109.007 204.328C111.653 206.18 108.589 202.892 108.093 199.971C107.598 197.051 109.387 197.136 109.387 197.136L109.037 194.67Z" fill="url(#paint6_linear_2_3)"/>
<path id="Vector_14" d="M119.967 149.546C119.967 149.546 126.24 134.001 140.39 131.468C140.39 131.468 135.158 133.094 129.362 138.603C127.417 140.493 122.953 147.42 122.953 147.42C122.953 147.42 137.784 132.064 147.645 132.867C157.506 133.67 157.779 147.647 162.291 149.972C165.086 151.547 167.143 154.115 168.028 157.135C168.028 157.135 171.967 161.784 171.714 166.679C171.462 171.574 166.647 188.528 166.647 188.528C166.647 188.528 167.912 172.774 163.487 166.443C163.487 166.443 162.009 157.758 155.658 154.271C148.379 154.792 141.063 154.586 133.826 153.657C120.551 152.136 116.224 155.16 116.224 155.16C116.224 155.16 108.025 161.519 108.113 169.401C108.113 169.401 105.02 175.26 108.239 190.985C108.239 190.985 100.838 174.92 100.965 168.352C101.091 161.784 108.025 155.339 108.025 155.339C108.025 155.339 102.278 158.344 98.991 162.323C98.991 162.323 94.4398 154.12 115.854 152.117C117.515 151.808 118.989 150.887 119.967 149.546Z" fill="url(#paint7_linear_2_3)"/>
<path id="Vector_15" d="M125.997 246.182C125.997 246.182 115.299 257.938 106.907 263.135C102.213 266.075 97.3056 268.677 92.2218 270.922C92.2218 270.922 90.2769 335.645 99.1563 369.486H186.924C186.924 369.486 194.296 288.716 189.696 267.775C189.696 267.775 166.55 258.013 156.932 245.615L157.35 256.86C157.35 256.86 153.548 274.693 141.538 275.571C130.451 276.384 126.231 254.725 126.231 254.725L125.997 246.182Z" fill="url(#paint8_linear_2_3)"/>
<path id="Vector_16" d="M125.9 242.279L121.699 241.381C117.346 248.231 111.934 254.389 105.653 259.639C98.2419 265.611 91.8525 264.203 80.3676 270.922C80.3676 270.922 93.0097 303.723 92.0861 332.838C92.0861 332.838 94.0993 351.738 97.2303 369.486L191.242 368.956C191.242 368.956 197.35 346.276 197.719 324.541C197.719 324.541 202.582 283.32 212.763 267.756C199.314 261.5 189.365 261.859 177.938 256.671C166.512 251.483 158.77 238.527 158.77 238.527L156.475 239.567L156.971 245.596C156.971 245.596 164.751 254.167 167.99 262.275C171.88 272.188 160.618 369.467 160.618 369.467L124.869 368.937C124.869 368.937 115.475 272.245 116.758 263.097C118.042 253.95 126.036 246.144 126.036 246.144L125.9 242.279Z" fill="url(#paint9_linear_2_3)"/>
<path id="Vector_17" d="M80.3281 270.922V281.988L62.736 310.225C62.736 310.225 58.5931 298.318 58.4084 296.05C58.2236 293.782 58.4084 289.869 58.4084 289.869L55.6367 287.724L56.1035 291.75C56.1035 291.75 57.572 315.923 30.6727 326.847C30.6727 326.847 32.6176 309.78 41.0492 295.662L40.6797 293.895C40.6797 293.895 31.227 307.125 28.4651 329.522L36.7508 333.302C36.7508 333.302 45.0462 356.53 55.9188 369.731L68.0458 369.845C68.0458 369.845 86.2314 354.375 94.4299 330.391C94.4299 330.391 98.4852 301.086 80.3281 270.922Z" fill="url(#paint10_linear_2_3)"/>
<path id="Vector_18" d="M77.5376 216.339C77.5376 216.339 68.3278 229.947 66.6065 234.965C64.8852 239.983 66.237 249.291 64.7588 251.436C64.7588 251.436 55.3061 259.431 54.1974 261.945C53.0888 264.458 54.1974 277.461 54.1974 277.461C50.4533 284.35 41.5549 286.496 41.5549 286.496C41.5549 286.496 40.7283 264.213 40.4463 263.674C40.1642 263.135 34.903 259.894 34.903 259.894C33.5881 256.801 32.5027 253.621 31.6549 250.378C30.6337 246.598 29.9141 242.912 29.4278 239.898C28.7179 235.589 28.4553 232.631 28.4553 232.631L27.7162 223.767C28.9999 218.04 32.4426 218.938 32.4426 218.938C32.772 222.371 33.423 225.769 34.3876 229.087L35.01 228.69C34.3204 225.039 33.8688 221.349 33.6582 217.643C35.3795 212.814 39.6196 214.128 39.6196 214.128C40.6602 219.977 42.012 225.883 42.012 225.883C40.845 218.323 41.6424 206.483 41.6424 206.483C43.2373 210.007 47.847 210.546 47.847 210.546C46.9231 214.657 47.847 223.332 47.847 223.332L48.8195 222.774C49.1599 218.588 49.792 214.099 50.57 209.809C51.7214 202.879 53.3458 196.032 55.4325 189.312C56.6676 186.203 59.8574 188.679 59.8574 188.679C61.1605 194.594 61.8024 199.008 61.1216 202.154C60.0908 206.955 57.0177 208.845 57.0177 208.845C57.0177 208.845 54.8101 220.185 54.9949 222.075C55.1796 223.965 56.191 236.401 56.191 236.401C61.2578 233.717 62.6387 229.956 62.6387 229.956C62.736 221.895 66.3245 217.511 70.9345 215.63C75.5441 213.75 77.5376 216.339 77.5376 216.339Z" fill="url(#paint11_linear_2_3)"/>
<g id="Vector_19" style="mix-blend-mode:multiply">
<g id="Vector_20" style="mix-blend-mode:multiply">
<path d="M112.752 188.868L112.392 190.03C112.392 190.03 119.734 191.854 126.104 187.762L112.752 188.868Z" fill="#FEB1C8"/>
</g>
</g>
<path id="Vector_20_2" d="M41.3215 280.788C41.3215 280.788 37.6163 284.681 37.1203 287.781C37.1203 287.781 39.5127 293.574 41.0103 295.719L41.9828 320.346C41.9828 320.346 56.5703 310.225 56.016 291.778C56.016 291.778 55.0435 279.333 56.016 275.845L54.0126 274.995L54.1974 277.48C54.1974 277.48 47.9929 285.097 41.5549 286.524L41.3215 280.788Z" fill="url(#paint12_linear_2_3)"/>
<path id="Vector_21" d="M212.725 267.775V277.632C212.725 277.632 245.498 327.594 255.855 358.628L258.588 369.864C258.588 369.864 239.439 342.629 224.55 344.065C209.661 345.501 208.115 354.092 208.115 354.092L209.224 358.571L208.115 360.357L204.983 346.749H202.222V344.604L197.126 334.728C197.126 334.728 194.85 289.368 212.725 267.775Z" fill="url(#paint13_linear_2_3)"/>
<path id="Vector_22" d="M139.846 168.597C139.846 168.597 140.536 163.674 142.617 162.512L139.846 168.597Z" fill="url(#paint14_linear_2_3)"/>
<g id="Vector_23" style="mix-blend-mode:multiply">
<g id="Vector_24" style="mix-blend-mode:multiply">
<path d="M144.319 185.589C149.107 186.44 154.049 185.881 158.508 183.982L157.535 182.867C157.535 182.867 154.627 185.702 144.319 185.589Z" fill="#FEB1C8"/>
</g>
</g>
<path id="Vector_24_2" style="mix-blend-mode:multiply" d="M110.107 175.392C105.059 179.248 110.583 193.961 110.583 193.961C110.583 193.961 122.807 196.494 129.527 188.868V179.55C129.527 179.55 131.472 176.583 138.435 176.81C138.435 176.81 140.945 185.844 142.714 189.869C142.714 189.869 155.298 192.978 161.931 184.927C161.931 184.927 162.475 175.987 159.412 171.697C156.349 167.407 139.846 168.654 139.846 168.654C139.846 168.654 135.956 171.697 125.842 170.979C125.842 170.922 113.384 172.935 110.107 175.392Z" fill="url(#paint15_linear_2_3)"/>
<path id="Vector_25" style="mix-blend-mode:multiply" d="M126.104 186.467C126.104 186.467 124.451 179.786 119.296 179.512C114.142 179.238 113.16 186.467 113.16 186.467H126.104Z" fill="url(#paint16_linear_2_3)"/>
<path id="Vector_26" style="mix-blend-mode:multiply" d="M143.395 183.982C143.395 183.982 143.259 176.205 148.598 174.863C153.937 173.521 156.232 179.692 156.232 179.692L143.395 183.982Z" fill="url(#paint17_linear_2_3)"/>
<path id="Vector_27" d="M157.166 183.992C156.161 184.529 155.058 184.869 153.917 184.993C151.576 185.398 149.206 185.632 146.828 185.693C144.98 185.693 143.59 185.598 143.444 185.248C142.89 183.906 144.543 178.633 149.678 177.632C154.812 176.63 158.829 182.65 157.166 183.992Z" fill="#FFE4EC"/>
<path id="Vector_28" d="M126.338 187.497C126.27 187.772 125.627 188.102 124.645 188.442C122.055 189.233 119.372 189.702 116.661 189.841C115.686 189.906 114.706 189.854 113.743 189.69C111.137 189.142 113.024 183.614 117.818 182.423C118.424 182.27 119.052 182.212 119.676 182.253C121.175 182.389 122.598 182.951 123.77 183.869C123.786 183.865 123.803 183.865 123.819 183.869C125.52 185.163 126.512 186.808 126.338 187.497Z" fill="#FFE4EC"/>
<g id="Vector_29" style="mix-blend-mode:multiply">
<g id="Vector_30" style="mix-blend-mode:multiply">
<path d="M131.744 200.85C131.744 200.85 128.059 201.087 126.95 199.745C125.841 198.403 127.777 197.789 130.84 195.502C133.903 193.215 137.015 193.923 139.865 195.095C142.714 196.267 145.029 196.418 145.35 197.439C145.671 198.459 141.761 199.66 140.701 199.612C139.641 199.565 139.223 199.253 138.163 199.877C136.815 200.551 135.292 200.817 133.787 200.642C133.101 200.502 132.386 200.574 131.744 200.85Z" fill="#FEB1C8"/>
</g>
</g>
<g id="Vector_30_2" style="mix-blend-mode:multiply">
<g id="Vector_31" style="mix-blend-mode:multiply">
<path d="M138.144 199.877C138.319 199.541 138.59 199.262 138.925 199.073C139.26 198.884 139.643 198.792 140.03 198.809C141.324 198.941 142.714 199.206 142.714 199.206C141.313 199.925 139.702 200.162 138.144 199.877Z" fill="#D1A1C8"/>
</g>
</g>
<g id="Vector_31_2" style="mix-blend-mode:multiply">
<g id="Vector_32" style="mix-blend-mode:multiply">
<path d="M133.514 200.605C133.321 200.262 133.041 199.973 132.7 199.765C132.36 199.557 131.971 199.436 131.569 199.414C130.237 199.348 129.498 200.775 129.498 200.775C130.224 200.948 130.979 200.974 131.716 200.85C132.298 200.675 132.905 200.592 133.514 200.605Z" fill="#D1A1C8"/>
</g>
</g>
<path id="Vector_32_2" style="mix-blend-mode:multiply" d="M140.429 191.986C140.429 191.986 145.496 191.485 145.291 197.439C145.207 196.138 144.686 194.9 143.807 193.915C142.929 192.93 141.742 192.252 140.429 191.986Z" fill="url(#paint18_linear_2_3)"/>
<path id="Vector_33" d="M154.793 182.385C154.795 183.335 154.489 184.261 153.917 185.031C151.576 185.436 149.206 185.67 146.828 185.73C146.258 185.209 145.829 184.557 145.582 183.835C145.335 183.113 145.276 182.342 145.411 181.592C145.546 180.843 145.871 180.137 146.356 179.54C146.842 178.942 147.473 178.472 148.191 178.169C148.91 177.867 149.695 177.744 150.475 177.81C151.256 177.876 152.008 178.129 152.662 178.547C153.317 178.965 153.854 179.535 154.226 180.205C154.598 180.874 154.792 181.624 154.793 182.385Z" fill="#7F6186"/>
<path id="Vector_34" d="M124.947 186.817C124.947 187.366 124.845 187.91 124.645 188.424C122.055 189.214 119.372 189.684 116.661 189.822C115.899 188.996 115.48 187.926 115.484 186.817C115.484 185.684 115.914 184.59 116.69 183.745C117.467 182.899 118.537 182.362 119.695 182.234H120.181C120.87 182.232 121.549 182.377 122.173 182.66C122.797 182.942 123.349 183.355 123.789 183.869C123.805 183.865 123.822 183.865 123.838 183.869C124.559 184.691 124.953 185.737 124.947 186.817Z" fill="#7F6186"/>
<path id="Vector_35" d="M143.395 183.982C143.395 183.982 144.942 178.369 150.125 177.858C151.549 177.741 152.977 178.037 154.228 178.71C155.478 179.383 156.493 180.403 157.146 181.638C157.146 181.638 155.853 177.036 151.428 176.8C147.003 176.564 144.212 180.278 143.395 183.982Z" fill="#6C2A51"/>
<path id="Vector_36" d="M125.929 186.165C125.929 186.165 122.671 181.761 117.974 182.81C116.658 183.076 115.449 183.706 114.492 184.623C113.535 185.54 112.87 186.705 112.576 187.979C112.576 187.979 113.024 183.16 117.556 181.818C122.535 180.315 125.929 186.165 125.929 186.165Z" fill="#6C2A51"/>
<g id="Vector_37" style="mix-blend-mode:multiply">
<g id="Vector_38" style="mix-blend-mode:multiply">
<path d="M124.947 208.845C124.947 208.845 128.146 210.092 136.87 209.28C142.192 208.71 147.076 206.147 150.485 202.135C150.485 202.135 144.017 210.763 138.688 211.359C133.359 211.954 131.171 210.48 128.497 209.771L124.947 208.845Z" fill="#BF7988"/>
</g>
</g>
<path id="Vector_38_2" d="M133.125 209.837C133.937 210.398 134.857 210.792 135.83 210.997C136.803 211.202 137.808 211.212 138.786 211.028C140.739 210.42 142.466 209.271 143.755 207.72C140.376 209.054 136.773 209.772 133.125 209.837Z" fill="#FFE4EC"/>
<path id="Vector_39" style="mix-blend-mode:multiply" d="M148.229 201.54C149.398 201.511 150.551 201.811 151.548 202.405C152.546 202.999 153.345 203.86 153.849 204.885C153.849 204.885 154.501 200.104 148.229 201.54Z" fill="url(#paint19_linear_2_3)"/>
<path id="Vector_40" style="mix-blend-mode:multiply" d="M135.177 213.513C138.122 213.926 141.125 213.398 143.736 212.011C143.736 212.011 142.52 216.311 139.661 216.575C136.801 216.84 135.177 213.513 135.177 213.513Z" fill="url(#paint20_linear_2_3)"/>
<path id="Vector_41" style="mix-blend-mode:multiply" d="M152.537 182.215C152.537 182.692 152.391 183.158 152.118 183.555C151.845 183.951 151.457 184.26 151.004 184.442C150.55 184.624 150.051 184.671 149.569 184.578C149.088 184.484 148.647 184.253 148.3 183.915C147.954 183.577 147.718 183.147 147.623 182.679C147.529 182.211 147.579 181.727 147.769 181.286C147.958 180.846 148.277 180.47 148.686 180.207C149.095 179.943 149.576 179.804 150.067 179.805C150.722 179.808 151.351 180.063 151.813 180.514C152.277 180.966 152.537 181.578 152.537 182.215Z" fill="url(#paint21_linear_2_3)"/>
<path id="Vector_42" style="mix-blend-mode:multiply" d="M122.69 186.467C122.69 186.944 122.545 187.411 122.272 187.807C121.999 188.204 121.611 188.512 121.158 188.694C120.704 188.877 120.205 188.924 119.723 188.83C119.242 188.737 118.8 188.506 118.454 188.168C118.108 187.83 117.872 187.399 117.778 186.932C117.683 186.464 117.733 185.979 117.923 185.539C118.112 185.098 118.431 184.723 118.84 184.459C119.249 184.196 119.73 184.056 120.221 184.058C120.876 184.06 121.504 184.315 121.968 184.767C122.431 185.219 122.69 185.83 122.69 186.467Z" fill="url(#paint22_linear_2_3)"/>
<path id="Vector_43" d="M152.099 181.714C152.099 181.714 154.316 180.693 155.746 182.347L152.099 181.714Z" fill="white"/>
<path id="Vector_44" d="M121.747 185.976C122.329 185.727 122.965 185.619 123.599 185.664C124.232 185.708 124.846 185.903 125.385 186.231L121.747 185.976Z" fill="white"/>
<g id="Vector_45" style="mix-blend-mode:multiply">
<g id="Vector_46" style="mix-blend-mode:multiply">
<path d="M112.392 210.858C115.475 217.813 121.241 224.012 129.527 226.488C134.545 227.981 146.731 226.365 152.537 223.341C155.677 221.739 158.444 219.525 160.665 216.838C162.885 214.15 164.511 211.046 165.442 207.72C165.442 207.72 166.123 213.627 155.366 223.341L155.746 237.119C155.746 237.119 144.164 244.868 138.922 246.9C133.68 248.932 125.744 236.505 125.744 236.505L125.453 225.779C125.453 225.779 115.193 220.894 112.392 210.858Z" fill="#E392AD"/>
</g>
</g>
<path id="Vector_46_2" d="M139.943 168.588C139.943 168.588 141.888 162.644 147.188 162.512L141.013 167.7C141.013 167.7 146.517 163.485 151.71 164.43C153.442 165.063 155.023 166.029 156.36 167.272C157.698 168.514 158.762 170.007 159.49 171.659C153.279 169.276 146.61 168.228 139.943 168.588Z" fill="url(#paint23_linear_2_3)"/>
<path id="Vector_47" d="M125.841 170.922C125.841 170.922 125.385 166.651 122.37 165.148L125.083 169.798C125.083 169.798 122.662 167.208 121.057 166.802C119.452 166.396 113.219 168.692 110.107 175.392C115.174 173.365 120.449 171.866 125.841 170.922Z" fill="url(#paint24_linear_2_3)"/>
<g id="Vector_48" style="mix-blend-mode:multiply">
<g id="Vector_49" style="mix-blend-mode:multiply">
<path d="M124.227 153.307C128.642 152.599 137.842 137.79 147.062 136.6C156.281 135.409 158.867 150.482 157.146 152.665C155.425 154.848 145.35 154.555 145.35 154.555C145.35 154.555 133.106 153.922 129.343 153.345C125.579 152.769 124.227 153.307 124.227 153.307Z" fill="#E392AD"/>
</g>
</g>
<path id="Vector_49_2" style="mix-blend-mode:multiply" d="M157.642 155.613C157.642 155.613 164.634 158.344 168.194 162.512C171.753 166.679 170.732 172.765 170.732 172.765L169.555 177.745C169.555 177.745 171.539 162.342 157.642 155.613Z" fill="url(#paint25_linear_2_3)"/>
<path id="Vector_50" style="mix-blend-mode:multiply" d="M115.115 156.161C115.115 156.161 100.002 163.173 102.958 177.518L104.67 182.347C104.67 182.347 101.471 166.528 115.115 156.161Z" fill="url(#paint26_linear_2_3)"/>
<path id="Vector_51" style="mix-blend-mode:multiply" d="M116.262 155.16C116.262 155.16 106.654 156.87 101.801 164.43C103.093 161.736 105.129 159.444 107.682 157.807C110.235 156.17 113.205 155.254 116.262 155.16Z" fill="url(#paint27_linear_2_3)"/>
<path id="Vector_52" d="M125.385 152.873C125.385 152.873 132.717 145.105 143.755 146.38C154.793 147.656 157.146 155.613 157.146 155.613C157.146 155.613 155.931 143.942 145.331 142.09C134.73 140.238 125.385 152.873 125.385 152.873Z" fill="url(#paint28_linear_2_3)"/>
<path id="Vector_53" d="M162.495 150.52C162.495 150.52 172.347 153.515 172.765 161.803C172.765 161.803 175.517 152.608 162.495 150.52Z" fill="url(#paint29_linear_2_3)"/>
<g id="Vector_54" style="mix-blend-mode:soft-light">
<g id="Vector_55" style="mix-blend-mode:soft-light">
<path d="M130.315 193.3C129.342 194.774 133.729 193.054 136.948 193.3C140.167 193.545 139.865 193.942 139.991 193.3C140.118 192.657 137.589 189.68 134.74 190.125C133.798 190.28 132.906 190.648 132.138 191.2C131.369 191.751 130.745 192.471 130.315 193.3Z" fill="#E7ECFF"/>
</g>
</g>
<path id="Vector_55_2" style="mix-blend-mode:multiply" d="M133.767 200.642C132.885 200.213 132.106 199.609 131.479 198.867C130.852 198.127 130.393 197.267 130.13 196.343L128.35 197.231C128.927 198.162 129.715 198.953 130.653 199.545C131.592 200.136 132.657 200.511 133.767 200.642Z" fill="url(#paint30_linear_2_3)"/>
<g id="Vector_56" style="mix-blend-mode:multiply">
<g id="Vector_57" style="mix-blend-mode:multiply">
<path d="M128.302 178.142C126.989 175.978 115.008 175.127 107.88 182.035C104.962 184.918 107.88 196.21 112.236 199.159C116.593 202.107 124.879 200.435 127.66 194.15C130.442 187.866 129.605 180.306 128.302 178.142ZM116.36 199.159C109.922 198.856 105.662 188.48 108.725 183.736C112.557 177.736 125.093 176.12 126.552 180.023C132.659 196.258 121.417 199.395 116.36 199.159Z" fill="#FFB8CB"/>
</g>
</g>
<g id="Vector_57_2" style="mix-blend-mode:multiply">
<g id="Vector_58" style="mix-blend-mode:multiply">
<path d="M140.264 175.883C141.236 173.483 154.122 169.042 162.757 174.343C166.365 176.554 165.228 189.038 160.754 193.167C156.689 196.947 147.888 197.061 143.843 191.466C139.797 185.872 139.301 178.284 140.264 175.883ZM156.514 194.018C163.137 192.374 166.239 180.202 162.223 176.186C157.156 171.092 143.22 173.228 142.413 177.367C139.067 194.576 151.311 195.313 156.514 194.018Z" fill="#FFB8CB"/>
</g>
</g>
<path id="Vector_58_2" d="M128.302 177.745C126.989 175.713 115.008 174.91 107.88 181.393C104.962 184.095 107.88 194.623 112.236 197.458C116.593 200.293 124.879 198.648 127.66 192.733C130.442 186.817 129.605 179.777 128.302 177.745ZM116.36 197.439C109.922 197.146 105.662 187.431 108.725 182.99C112.557 177.367 125.093 175.855 126.552 179.503C132.659 194.717 121.417 197.656 116.36 197.439Z" fill="url(#paint31_linear_2_3)"/>
<path id="Vector_59" d="M140.264 175.628C141.236 173.379 154.122 169.221 162.757 174.192C166.365 176.261 165.228 187.951 160.754 191.816C156.689 195.341 147.888 195.464 143.843 190.238C139.797 185.012 139.301 177.877 140.264 175.628ZM156.514 192.638C163.137 191.098 166.239 179.701 162.223 175.931C157.156 171.158 143.22 173.162 142.413 177.036C139.067 193.149 151.311 193.829 156.514 192.619V192.638Z" fill="url(#paint32_linear_2_3)"/>
<path id="Vector_60" d="M129.031 180.901C129.031 180.901 135.45 178.397 140.701 180.372L140.342 177.745C138.433 177.167 136.425 176.972 134.437 177.172C132.449 177.372 130.524 177.962 128.779 178.907L129.031 180.901Z" fill="url(#paint33_linear_2_3)"/>
<path id="Vector_61" d="M166.045 179.503L167.912 184.067L170.255 183.169L167.115 174.863L166.045 179.503Z" fill="url(#paint34_linear_2_3)"/>
<path id="Vector_62" d="M106.907 183.982L104.466 184.748L105.205 187.488L107.024 187.951L106.907 183.982Z" fill="#5143A1"/>
<path id="Vector_63" d="M167.348 179.323L164.887 179.73L163.769 175.184L167.115 174.863L167.348 179.323Z" fill="#5143A1"/>
<g id="Vector_64" style="mix-blend-mode:soft-light">
<g id="Vector_65" style="mix-blend-mode:soft-light">
<path d="M142.714 181.44C142.714 181.44 141.849 188.575 148.695 192.024C151.626 192.674 154.683 192.543 157.545 191.646L153.577 180.949L142.714 181.44Z" fill="#5CF1FF"/>
</g>
</g>
<g id="Vector_65_2" style="mix-blend-mode:soft-light">
<g id="Vector_66" style="mix-blend-mode:soft-light">
<path d="M109.066 185.74C109.066 185.74 108.346 192.865 113.928 196.324C116.322 196.968 118.865 196.835 121.173 195.946L117.945 185.22L109.066 185.74Z" fill="#5CF1FF"/>
</g>
</g>
<g id="Vector_66_2" style="mix-blend-mode:multiply">
<g id="Vector_67" style="mix-blend-mode:multiply">
<path d="M129.517 184.804C131.005 183.655 132.785 182.92 134.669 182.675C136.552 182.431 138.469 182.686 140.215 183.415L139.593 181.44C137.955 180.719 136.15 180.433 134.361 180.61C132.572 180.788 130.864 181.423 129.41 182.451L129.517 184.804Z" fill="#FEB1C8"/>
</g>
</g>
<g id="Vector_67_2" style="mix-blend-mode:multiply">
<g id="Vector_68" style="mix-blend-mode:multiply">
<path d="M165.996 201.54C165.996 201.54 167.708 201.928 168.145 203.071C168.583 204.215 165.714 205.547 165.714 205.547L165.996 201.54Z" fill="#FEB1C8"/>
</g>
</g>
<g id="Vector_68_2" style="mix-blend-mode:multiply">
<g id="Vector_69" style="mix-blend-mode:multiply">
<path d="M111.186 205.547C111.186 205.547 109.241 207.617 109.523 208.382C109.805 209.147 112.022 209.327 112.022 209.327L111.186 205.547Z" fill="#FEB1C8"/>
</g>
</g>
<path id="Vector_69_2" d="M125.385 152.873C130.156 151.579 135.2 151.579 139.972 152.873C148.374 154.952 143.784 159.611 143.784 159.611C143.784 159.611 141.168 150.161 125.385 152.873Z" fill="url(#paint35_linear_2_3)"/>
<g id="Vector_70" style="mix-blend-mode:soft-light">
<g id="Vector_71" style="mix-blend-mode:soft-light">
<path d="M145.35 132.867C146.044 133.195 146.576 133.777 146.83 134.486C147.083 135.194 147.036 135.971 146.702 136.647C147.608 136.445 148.548 136.433 149.459 136.614C150.37 136.795 151.231 137.164 151.982 137.696C151.328 136.802 150.433 136.098 149.396 135.664C147.956 135.22 147.83 132.829 147.83 132.829C147.01 132.66 146.163 132.674 145.35 132.867Z" fill="white"/>
</g>
</g>
<g id="Vector_71_2" style="mix-blend-mode:soft-light">
<g id="Vector_72" style="mix-blend-mode:soft-light">
<path d="M145.72 142.166C146.624 142.988 144.154 146.428 144.154 146.428L148.336 147.42C148.336 147.42 146.847 146.012 146.993 144.793C147.139 143.574 148.666 143.101 148.666 143.101L145.72 142.166Z" fill="white"/>
</g>
</g>
<g id="Vector_72_2" style="mix-blend-mode:multiply">
<g id="Vector_73" style="mix-blend-mode:multiply">
<path d="M121.708 251.436C121.708 251.436 123.595 279.588 141.227 280.674C160.91 281.894 161.96 258.117 159.51 248.544C163.156 262.937 159.937 280.986 141.625 281.374C122.856 281.79 121.708 251.436 121.708 251.436Z" fill="#E392AD"/>
</g>
</g>
<g id="Vector_73_2" style="mix-blend-mode:multiply">
<g id="Vector_74" style="mix-blend-mode:multiply">
<path d="M125.997 246.182C125.997 246.182 125.452 272.897 141.849 272.387C157.632 271.905 157.166 251.89 157.166 251.89L157.35 256.86C157.35 256.86 152.77 277.405 140.429 275.581C128.088 273.757 125.452 253.468 125.997 246.182Z" fill="#E392AD"/>
</g>
</g>
<path id="Vector_74_2" style="mix-blend-mode:multiply" d="M126.639 226.46C126.639 226.46 136.023 262.256 138.144 264.26C140.264 266.263 134.409 229.871 134.409 229.871L126.639 226.46Z" fill="url(#paint36_linear_2_3)"/>
<g id="Vector_75" style="mix-blend-mode:multiply">
<g id="Vector_76" style="mix-blend-mode:multiply">
<path d="M156.436 239.586L157.642 238.546C157.642 238.546 166.103 252.457 169.05 260.659C171.996 268.862 162.748 369.495 162.748 369.495L152.478 369.183C152.478 369.183 163.477 309.894 165.442 286.505C166.581 272.374 163.634 258.214 156.932 245.624L156.436 239.586Z" fill="#E392AD"/>
</g>
</g>
<g id="Vector_76_2" style="mix-blend-mode:multiply">
<g id="Vector_77" style="mix-blend-mode:multiply">
<path d="M132.62 369.287C132.62 369.287 118.032 276.224 118.937 264.222C119.841 252.221 125.997 246.182 125.997 246.182L125.9 242.279L121.699 241.381C121.699 241.381 115.99 256.322 115.066 264.298C114.142 272.273 121.708 369.287 121.708 369.287H132.62Z" fill="#E392AD"/>
</g>
</g>
<path id="Vector_77_2" d="M107.947 257.399C107.947 257.399 98.6407 267.548 91.2694 274.23C91.2694 274.23 93.1075 278.766 102.939 280.438L94.7894 289.397C94.7894 289.397 103.056 338.811 113.374 369.608L121.679 369.287C121.679 369.287 114.298 275.846 115.037 264.298C115.776 252.75 121.67 241.381 121.67 241.381C121.67 241.381 115.543 249.48 107.947 257.399Z" fill="url(#paint37_linear_2_3)"/>
<path id="Vector_78" d="M158.732 238.546C158.732 238.546 169.215 254.555 181.012 257.985L194.111 273.993C194.111 273.993 194.024 279.37 179.835 282.12L188.83 292.515C188.83 292.515 182.927 337.875 169.633 369.06L162.748 369.467C162.748 369.467 172.784 276.857 169.39 262.341C167.446 253.817 163.827 245.738 158.732 238.546Z" fill="url(#paint38_linear_2_3)"/>
<path id="Vector_79" style="mix-blend-mode:multiply" d="M121.747 257.399C121.747 257.399 121.213 289.397 138.435 309.204L121.747 257.399Z" fill="url(#paint39_linear_2_3)"/>
<path id="Vector_80" style="mix-blend-mode:multiply" d="M163.769 260.537C163.769 260.537 167.659 283.831 144.319 298.195C144.319 298.195 160.073 282.054 163.769 260.537Z" fill="url(#paint40_linear_2_3)"/>
<g id="Vector_81" style="mix-blend-mode:multiply">
<g id="Vector_82" style="mix-blend-mode:multiply">
<path d="M37.1203 302.343L39.8141 322.009C39.8141 322.009 55.7923 313.74 56.1035 291.769C56.1035 291.769 53.9543 306.577 42.401 313.617L41.0492 295.709L40.3004 294.49L37.1203 302.343Z" fill="#E392AD"/>
</g>
</g>
<g id="Vector_82_2" style="mix-blend-mode:multiply">
<g id="Vector_83" style="mix-blend-mode:multiply">
<path d="M41.5452 286.496L37.8594 287.308C38.5939 285.23 39.789 283.333 41.3604 281.752L41.5452 286.496Z" fill="#E392AD"/>
</g>
</g>
<path id="Vector_83_2" style="mix-blend-mode:multiply" d="M60.295 202.154C59.3225 206.955 57.0177 208.845 57.0177 208.845C57.0177 208.845 54.8101 220.185 54.9949 222.075C46.3396 223.719 34.3001 229.871 31.7132 233.207C29.3403 236.278 31.2756 248.233 31.5965 250.142L29.4181 239.917C28.7082 235.607 28.4456 232.65 28.4456 232.65L27.7065 223.785C28.9902 218.059 32.4329 218.957 32.4329 218.957C32.7622 222.39 33.4133 225.788 34.3779 229.106L35.01 228.69C34.3204 225.039 33.8688 221.349 33.6582 217.643C35.3795 212.814 39.6196 214.128 39.6196 214.128C40.6602 219.977 42.012 225.883 42.012 225.883C40.845 218.323 41.6424 206.483 41.6424 206.483C43.2373 210.007 47.847 210.546 47.847 210.546C46.9231 214.657 47.847 223.332 47.847 223.332L48.8195 222.774C49.1599 218.588 49.792 214.099 50.57 209.809C57.2413 208.486 60.1491 202.523 60.295 202.154Z" fill="url(#paint41_linear_2_3)"/>
<path id="Vector_84" d="M41.6035 206.492L59.235 197.439C59.235 197.439 65.2061 208.467 47.8081 210.546C47.8081 210.546 42.401 211.68 41.6035 206.492Z" fill="url(#paint42_linear_2_3)"/>
<path id="Vector_85" d="M35.5643 214.562L47.7206 206.549C47.7206 206.549 50.4825 210.329 48.0512 213.882C45.9604 216.915 39.114 219.816 33.7069 218.607C33.7069 218.654 33.0067 216.518 35.5643 214.562Z" fill="url(#paint43_linear_2_3)"/>
<path id="Vector_86" d="M32.0925 218.73L42.79 217.917C42.79 217.917 43.2082 223.587 37.6649 224.277C34.3795 224.786 31.013 224.401 27.9399 223.162C27.8665 222.596 27.9201 222.022 28.0971 221.479C28.2739 220.936 28.57 220.437 28.9647 220.016C29.3594 219.594 29.8434 219.261 30.3834 219.039C30.9234 218.817 31.5065 218.712 32.0925 218.73Z" fill="url(#paint44_linear_2_3)"/>
<path id="Vector_87" d="M52.9915 200.642C50.5311 201.909 54.4892 201.587 56.4244 200.642C57.0352 199.341 58.0088 198.231 59.235 197.439L52.9915 200.642Z" fill="#FFE4DB"/>
<path id="Vector_88" d="M47.7206 206.549C47.7206 206.549 44.1807 208.779 43.6361 210.933C43.6361 210.933 38.9681 213.268 40.1934 211.746C41.4188 210.225 47.7206 206.549 47.7206 206.549Z" fill="#FFE4DB"/>
<path id="Vector_89" d="M42.8581 217.917C42.8581 217.917 40.6213 217.624 38.8708 220.176C38.8708 220.176 34.6891 220.431 35.4282 219.127C36.1673 217.822 42.8581 217.917 42.8581 217.917Z" fill="#FFE4DB"/>
<path id="Vector_90" style="mix-blend-mode:multiply" d="M64.7588 251.436C64.7588 251.436 52.3497 258.713 49.2863 262.294C47.9429 263.758 46.711 265.315 45.6005 266.953L54.1974 261.935C54.1974 261.935 57.7568 257.985 64.7588 251.436Z" fill="url(#paint45_linear_2_3)"/>
<path id="Vector_91" style="mix-blend-mode:multiply" d="M56.191 236.363C56.191 236.363 45.3477 238.187 44.735 250.359C44.735 250.359 44.6766 233.046 56.1132 235.447L56.191 236.363Z" fill="url(#paint46_linear_2_3)"/>
<path id="Vector_92" style="mix-blend-mode:multiply" opacity="0.5" d="M62.6387 229.919C63.407 232.092 71.0604 226.46 71.0604 226.46C71.0604 226.46 65.1186 234.303 65.6535 242.005C65.6535 242.005 64.0002 237.167 59.7115 236.628C56.8069 236.419 53.9013 237.023 51.3383 238.367C52.8599 237.491 54.4952 236.818 56.2008 236.363C56.2008 236.363 61.0049 233.642 62.6387 229.919Z" fill="url(#paint47_linear_2_3)"/>
<g id="Vector_93" style="mix-blend-mode:multiply">
<g id="Vector_94" style="mix-blend-mode:multiply">
<path d="M41.4188 283.784C46.2513 283.013 50.7174 280.8 54.1974 277.452C54.1974 277.452 49.1599 284.322 41.5549 286.496L41.4188 283.784Z" fill="#FEB1C8"/>
</g>
</g>
<path id="Vector_94_2" style="mix-blend-mode:multiply" opacity="0.8" d="M80.3289 281.988C80.3289 281.988 89.4799 301.266 92.0474 322.623C92.0474 322.623 93.8756 290.578 80.3289 270.969V281.988Z" fill="url(#paint48_linear_2_3)"/>
<path id="Vector_95" style="mix-blend-mode:multiply" opacity="0.8" d="M62.736 310.225C62.736 310.225 74.5227 324.551 75.262 341.41C75.262 341.41 78.9473 315.8 63.3681 309.232L62.736 310.225Z" fill="url(#paint49_linear_2_3)"/>
<path id="Vector_96" style="mix-blend-mode:multiply" opacity="0.8" d="M28.4651 329.559C28.4651 329.559 44.5502 327.414 54.1974 310.943C54.1974 310.943 51.8634 329.918 36.7508 333.32L28.4651 329.559Z" fill="url(#paint50_linear_2_3)"/>
<path id="Vector_97" style="mix-blend-mode:multiply" opacity="0.8" d="M58.4083 296.078C58.4083 296.078 62.1816 319.174 64.7588 336.543C67.3359 353.912 66.237 356.265 66.237 356.265C66.237 356.265 67.5109 346.702 65.6826 329.219C64.3985 317.965 61.9617 306.862 58.4083 296.078Z" fill="url(#paint51_linear_2_3)"/>
<g id="Vector_98" style="mix-blend-mode:multiply">
<g id="Vector_99" style="mix-blend-mode:multiply">
<path d="M92.0474 332.838L91.2982 316.206C91.2982 316.206 96.6957 357.078 107.014 369.429L110.34 367.34C110.34 367.34 105.477 343.904 101.218 322.576L113.403 369.608L97.1916 369.495C97.1916 369.495 93.2918 344.065 92.0474 332.838Z" fill="#E392AD"/>
</g>
</g>
<path id="Vector_99_2" style="mix-blend-mode:multiply" opacity="0.8" d="M212.725 267.775C212.725 267.775 200.432 284.681 198.75 305.33C198.75 305.33 203.33 286.949 212.725 277.632V267.775Z" fill="url(#paint52_linear_2_3)"/>
<path id="Vector_100" style="mix-blend-mode:multiply" opacity="0.8" d="M207.016 296.078C207.016 296.078 208.854 328.482 204.983 346.749H202.222C202.222 346.749 209.778 322.396 207.016 296.078Z" fill="url(#paint53_linear_2_3)"/>
<path id="Vector_101" style="mix-blend-mode:multiply" opacity="0.8" d="M197.126 334.728L198.75 313.627C198.75 313.627 192.827 355.613 183.608 368.994H191.203C191.203 368.994 196.367 350.264 197.126 334.728Z" fill="url(#paint54_linear_2_3)"/>
<path id="Vector_102" style="mix-blend-mode:multiply" opacity="0.8" d="M205.742 350.028C205.742 350.028 210.604 340.209 218.929 338.499C227.254 336.789 243.679 341.334 243.679 341.334C242.265 338.184 239.831 335.567 236.747 333.884C233.663 332.2 230.097 331.541 226.592 332.007C213.814 333.443 211.85 339.567 209.331 343.29C206.812 347.013 205.217 347.524 205.217 347.524L205.742 350.028Z" fill="url(#paint55_linear_2_3)"/>
<path id="Vector_103" style="mix-blend-mode:multiply" opacity="0.8" d="M212.112 343.111C212.112 343.111 218.433 338.386 229.559 339.945C240.684 341.504 243.174 343.725 243.174 343.725C243.174 343.725 226.174 337.62 212.112 343.111Z" fill="url(#paint56_linear_2_3)"/>
<path id="Vector_104" style="mix-blend-mode:multiply" d="M200.704 341.665C200.704 341.665 207.434 315.951 203.262 292.525C203.262 292.525 196.824 298.384 197.126 334.757L200.704 341.665Z" fill="url(#paint57_linear_2_3)"/>
<g id="Vector_105" style="mix-blend-mode:multiply">
<g id="Vector_106" style="mix-blend-mode:multiply">
<path d="M173.29 368.994C173.29 368.994 184.96 330.561 184.862 298.195C184.862 298.195 181.089 338.764 169.633 369.07L173.29 368.994Z" fill="#E392AD"/>
</g>
</g>
<path id="Vector_106_2" d="M215.302 346.749L216.595 356.152C216.595 356.152 228.994 357.89 229.15 357.645C229.306 357.399 229.15 345.142 229.15 345.142L215.302 346.749Z" fill="url(#paint58_linear_2_3)"/>
<path id="Vector_107" d="M229.248 342.156C211.927 339.529 205.908 350.746 205.908 350.746L208.115 360.357C228.722 372.746 258.588 369.864 258.588 369.864C258.588 369.864 246.568 344.783 229.248 342.156ZM209.224 358.571L208.484 352.655C208.484 352.655 210.429 342.695 227.652 344.15C241.16 345.275 255.009 367.435 255.009 367.435C228.207 371.763 209.224 358.571 209.224 358.571Z" fill="url(#paint59_linear_2_3)"/>
<path id="Vector_108" d="M209.924 357.645C209.924 357.645 199.119 362.502 197.028 364.26C196.713 365.45 196.713 366.699 197.028 367.889C197.612 369.363 201.764 369.363 204.245 368.559C206.724 367.756 210.42 361.122 210.42 361.122L209.924 357.645Z" fill="url(#paint60_linear_2_3)"/>
<path id="Vector_109" d="M203.914 369.967C203.914 369.967 207.133 355.792 217.529 351.379C227.925 346.966 241.744 360.054 242.357 370.204L203.914 369.967Z" fill="url(#paint61_linear_2_3)"/>
<g id="Vector_110" style="mix-blend-mode:multiply">
<g id="Vector_111" style="mix-blend-mode:multiply">
<path d="M205.363 365.573H217.393C217.393 365.573 219.182 355.641 222.43 350.69C222.43 350.69 211.324 350.075 205.363 365.573Z" fill="#E392AD"/>
</g>
</g>
<g id="Vector_111_2" style="mix-blend-mode:multiply">
<g id="Vector_112" style="mix-blend-mode:multiply">
<path d="M210.332 356.955C214.195 355.742 218.332 355.617 222.265 356.596C229.072 358.193 238.973 367.992 239.77 368.418C240.529 368.726 241.322 368.948 242.133 369.079C242.133 369.079 239.4 355.018 228.158 351.313C216.916 347.609 210.332 356.955 210.332 356.955Z" fill="#BFA1BC"/>
</g>
</g>
<g id="Vector_112_2" style="mix-blend-mode:multiply">
<g id="Vector_113" style="mix-blend-mode:multiply">
<path d="M220.66 365.573C220.66 365.573 221.448 355.433 223.48 351.313C223.48 351.313 229.646 352.183 232.749 354.46L232.068 365.8L220.66 365.573Z" fill="#E392AD"/>
</g>
</g>
<path id="Vector_113_2" d="M244.175 359.525C244.175 361.973 242.775 365.195 242.172 366.452L241.919 366.953C238.175 367.492 237.485 364.855 237.485 364.855L238.399 362.965C237.897 363.259 237.322 363.415 236.736 363.415C236.15 363.415 235.574 363.259 235.073 362.965C233.225 361.935 231.786 358.713 231.786 358.713L232.457 356.161C232.211 356.492 231.945 356.807 231.659 357.106C231.441 357.352 231.181 357.56 230.891 357.72C230.22 358.013 224.813 356.643 224.259 355.537C224.018 354.457 223.963 353.346 224.093 352.249C224.2 350.179 224.463 347.949 224.463 347.949L222.411 347.59C221.615 349.298 220.609 350.907 219.416 352.381C219.317 352.475 219.213 352.563 219.104 352.646C217.066 353.751 214.95 354.717 212.773 355.537C209.71 354.451 209.428 352.324 209.622 350.935C209.682 350.471 209.807 350.016 209.992 349.584C212.452 346.239 212.656 341.504 216.595 341.599C220.534 341.693 222.109 343.999 222.109 343.999C222.866 344.268 223.667 344.406 224.473 344.405C226.391 343.93 228.406 343.962 230.308 344.5C233.089 345.445 234.771 348.941 234.771 348.941C234.771 348.941 239.255 351.332 240.052 352.466C240.849 353.6 240.606 356.879 240.606 356.879C242.396 357.314 244.175 359.525 244.175 359.525Z" fill="url(#paint62_linear_2_3)"/>
<g id="Vector_114" style="mix-blend-mode:multiply">
<g id="Vector_115" style="mix-blend-mode:multiply">
<path d="M179.835 282.12L170.11 276.29C173.697 277.628 176.995 279.605 179.835 282.12Z" fill="#E392AD"/>
</g>
</g>
<g id="Vector_115_2" style="mix-blend-mode:multiply">
<g id="Vector_116" style="mix-blend-mode:multiply">
<path d="M102.968 280.438C102.968 280.438 110.641 273.87 115.164 272.878C110.902 275.085 106.824 277.612 102.968 280.438Z" fill="#E392AD"/>
</g>
</g>
<path id="Vector_116_2" d="M87.7199 369.864C87.7199 369.864 77.8485 329.389 74.9898 298.989C74.9898 298.989 147.197 288.99 201.249 294.67C201.249 294.67 198.915 335.04 192.866 369.854L87.7199 369.864Z" fill="url(#paint63_linear_2_3)"/>
<g id="Vector_117" style="mix-blend-mode:soft-light" opacity="0.5">
<g id="Vector_118" style="mix-blend-mode:soft-light">
<path d="M144.319 294.745L87.7191 369.864H133.767L184.862 294.745C184.862 294.745 160.861 292.95 144.319 294.745Z" fill="white"/>
</g>
</g>
<path id="Vector_118_2" d="M74.9898 298.998L77.1676 295.842C77.1676 295.842 138.435 287.138 197.758 292.638L201.23 294.679C201.23 294.679 131.288 291.589 74.9898 298.998Z" fill="url(#paint64_linear_2_3)"/>
<path id="Vector_119" d="M125.209 337.951C125.209 337.951 133.33 324.721 146.77 323.237C146.77 323.237 145.476 331.96 125.209 337.951Z" fill="white"/>
<path id="Vector_120" d="M179.835 291.381V294.216L158.732 294.065V290.824C158.732 290.824 174.399 291.06 179.835 291.381Z" fill="white"/>
<path id="Vector_121" d="M83.7518 295.02V297.911L99.2534 296.465L99.9533 293.356C99.9533 293.356 87.9921 294.5 83.7518 295.02Z" fill="white"/>
<g id="Vector_122" style="mix-blend-mode:multiply">
<g id="Vector_123" style="mix-blend-mode:multiply">
<path d="M86.2314 363.485C86.2314 363.485 94.7408 368.314 138.435 369.089C182.13 369.864 193.595 365.554 193.595 365.554L192.866 369.864H87.7191L86.2314 363.485Z" fill="#EBC2D4"/>
</g>
</g>
<g id="Vector_123_2" style="mix-blend-mode:multiply">
<g id="Vector_124" style="mix-blend-mode:multiply">
<path d="M219.376 352.485C219.278 352.579 219.174 352.667 219.065 352.75C217.026 353.855 214.911 354.821 212.734 355.641C209.671 354.555 209.389 352.428 209.584 351.039C211.072 351.795 218.443 350.17 219.182 350.529C219.921 350.888 219.376 352.485 219.376 352.485Z" fill="#E392AD"/>
</g>
</g>
<g id="Vector_124_2" style="mix-blend-mode:multiply">
<g id="Vector_125" style="mix-blend-mode:multiply">
<path d="M232.427 354.848C232.332 355.673 232.057 356.468 231.62 357.182C231.402 357.428 231.143 357.635 230.852 357.796C230.181 358.089 224.774 356.719 224.219 355.613C223.98 354.533 223.924 353.422 224.054 352.324C224.054 352.324 226.972 350.434 229.208 351.332C231.445 352.23 232.427 353.506 232.427 354.848Z" fill="#E392AD"/>
</g>
</g>
<g id="Vector_125_2" style="mix-blend-mode:multiply">
<g id="Vector_126" style="mix-blend-mode:multiply">
<path d="M239.303 360.631C239.254 361.495 238.931 362.324 238.379 363.003C237.877 363.297 237.303 363.453 236.716 363.453C236.13 363.453 235.555 363.297 235.053 363.003C233.205 361.973 231.766 358.75 231.766 358.75C232.078 357.56 233.711 357.002 235.656 357.853C237.041 358.547 238.278 359.49 239.303 360.631Z" fill="#E392AD"/>
</g>
</g>
<g id="Vector_126_2" style="mix-blend-mode:multiply">
<g id="Vector_127" style="mix-blend-mode:multiply">
<path d="M242.152 366.452C242.147 366.548 242.123 366.642 242.079 366.727C242.035 366.814 241.974 366.89 241.9 366.953C238.155 367.492 237.465 364.855 237.465 364.855C237.913 363.91 239.945 363.825 241.053 364.496C241.4 364.697 241.684 364.984 241.878 365.328C242.071 365.672 242.166 366.061 242.152 366.452Z" fill="#E392AD"/>
</g>
</g>
<g id="Vector_127_2" style="mix-blend-mode:multiply">
<g id="Vector_128" style="mix-blend-mode:multiply">
<path d="M197.029 367.926C197.891 368.402 198.855 368.674 199.845 368.72C200.835 368.766 201.823 368.584 202.727 368.191C206.092 366.896 203.593 360.801 203.593 360.801L209.622 357.862C209.622 357.862 205.198 364.43 204.225 368.597C204.225 368.597 198.39 370.213 197.029 367.926Z" fill="#E392AD"/>
</g>
</g>
<path id="Vector_128_2" d="M210.42 349.943C212.642 349.126 215.046 348.888 217.393 349.253C217.393 349.253 216.42 346.475 213.911 346.749C211.402 347.023 210.42 349.943 210.42 349.943Z" fill="#FFE4DB"/>
<path id="Vector_129" d="M227.37 350.444C227.37 350.444 231.338 350.283 232.671 352.334C232.671 352.334 231.475 348.885 229.812 349.026C229.321 349.071 228.849 349.222 228.426 349.467C228.004 349.713 227.643 350.046 227.37 350.444Z" fill="#FFE4DB"/>
<path id="Vector_130" d="M235.52 356.728C235.52 356.728 238.515 357.579 239.303 359.506C239.303 359.506 239.303 355.925 237.922 355.613C236.541 355.301 235.52 356.728 235.52 356.728Z" fill="#FFE4DB"/>
<path id="Vector_131" d="M239.818 363.39C239.818 363.39 241.686 363.778 242.182 364.562C242.182 364.562 242.94 362.105 241.744 361.793C240.548 361.481 239.818 363.39 239.818 363.39Z" fill="#FFE4DB"/>
<path id="Vector_132" style="mix-blend-mode:multiply" d="M234.713 349.017C234.196 351.48 233.423 353.887 232.408 356.199C234.202 354.361 235.3 351.985 235.52 349.461L234.713 349.017Z" fill="url(#paint65_linear_2_3)"/>
<path id="Vector_133" style="mix-blend-mode:multiply" d="M240.548 356.955L238.953 362.086C238.953 362.086 242.327 360.555 241.773 357.437L240.548 356.955Z" fill="url(#paint66_linear_2_3)"/>
<g id="Vector_134" style="mix-blend-mode:multiply">
<g id="Vector_135" style="mix-blend-mode:multiply">
<path d="M220.446 351.077L222.061 344.075L222.751 344.273L222.372 347.647L224.424 348.006L224.161 350.69C224.161 350.69 221.341 350.472 220.446 351.077Z" fill="#E392AD"/>
</g>
</g>
<g id="Vector_135_2" style="mix-blend-mode:multiply">
<g id="Vector_136" style="mix-blend-mode:multiply">
<path d="M179.835 282.12C179.835 282.12 189.881 279.125 194.111 273.993C194.111 273.993 192.234 282.753 181.468 283.954L179.835 282.12Z" fill="#E392AD"/>
</g>
</g>
<g id="Vector_136_2" style="mix-blend-mode:multiply">
<g id="Vector_137" style="mix-blend-mode:multiply">
<path d="M91.2982 274.23C91.2982 274.23 90.5104 280.419 100.858 282.735L104.057 279.522C99.4412 278.738 95.0743 276.926 91.2982 274.23Z" fill="#E392AD"/>
</g>
</g>
<path id="Vector_137_2" style="mix-blend-mode:multiply" opacity="0.5" d="M166.686 248.27C166.686 248.27 172.376 260.867 176.411 264.978C180.447 269.089 191.583 270.922 191.583 270.922L181.012 257.985C181.012 257.985 173.367 256.199 166.686 248.27Z" fill="url(#paint67_linear_2_3)"/>
<path id="Vector_138" style="mix-blend-mode:multiply" opacity="0.5" d="M119.472 244.197C119.472 244.197 115.154 254.895 112.392 263.665C109.63 272.434 97.6678 273.521 97.6678 273.521C97.6678 273.521 110.612 253.468 119.472 244.197Z" fill="url(#paint68_linear_2_3)"/>
<g id="Vector_139" style="mix-blend-mode:multiply">
<g id="Vector_140" style="mix-blend-mode:multiply">
<path d="M34.4654 258.854L42.8581 263.485L40.4365 263.674L34.8933 259.875L34.4654 258.854Z" fill="#FEB1C8"/>
</g>
</g>
<path id="Vector_140_2" style="mix-blend-mode:multiply" opacity="0.5" d="M36.3812 239.378C38.1998 234.842 49.9962 229.314 52.6317 230.287C55.2672 231.26 54.5183 237.119 54.5183 237.119C54.5183 237.119 47.3705 237.819 44.7933 248.563C44.7933 248.563 41.4188 251.994 39.075 250.104C36.7313 248.214 36.3812 239.378 36.3812 239.378Z" fill="url(#paint69_linear_2_3)"/>
<g id="Vector_141" style="mix-blend-mode:soft-light" opacity="0.2">
<g id="Vector_142" style="mix-blend-mode:soft-light">
<path d="M212.725 277.632C215.327 288.41 218.816 298.968 223.159 309.204C230.687 327.301 249.553 342.912 249.553 342.912C249.553 342.912 228.178 299.83 212.725 277.632Z" fill="white"/>
</g>
</g>
<g id="Vector_142_2" style="mix-blend-mode:soft-light" opacity="0.2">
<g id="Vector_143" style="mix-blend-mode:soft-light">
<path d="M184.862 259.592C186.87 262.522 189.315 265.147 192.117 267.378C196.173 270.355 208.455 273.993 208.455 273.993L212.725 267.775C207.639 265.612 202.392 263.828 197.029 262.436C189.268 260.546 184.862 259.592 184.862 259.592Z" fill="white"/>
</g>
</g>
<g id="Vector_143_2" style="mix-blend-mode:soft-light" opacity="0.2">
<g id="Vector_144" style="mix-blend-mode:soft-light">
<path d="M80.3289 270.922C81.9327 273.525 83.3874 276.213 84.6852 278.973C84.6852 278.973 90.1608 273.823 93.5935 270.355C95.5723 268.395 97.2141 266.14 98.4557 263.674C92.8739 265.545 83.4015 268.257 80.3289 270.922Z" fill="white"/>
</g>
</g>
<path id="Vector_144_2" style="mix-blend-mode:multiply" d="M142.957 168.427C144.485 167.249 146.24 166.38 148.12 165.872C149.999 165.363 151.964 165.227 153.898 165.47C150.111 165.875 146.416 166.874 142.957 168.427Z" fill="url(#paint70_linear_2_3)"/>
<path id="Vector_145" style="mix-blend-mode:multiply" d="M145.01 168.427C145.01 168.427 152.575 166.046 157.146 168.153C153.14 167.266 148.969 167.36 145.01 168.427Z" fill="url(#paint71_linear_2_3)"/>
<path id="Vector_146" style="mix-blend-mode:multiply" d="M125.385 171.045C125.385 171.045 121.572 167.029 118.022 167.473L125.385 171.045Z" fill="url(#paint72_linear_2_3)"/>
<path id="Vector_147" style="mix-blend-mode:multiply" d="M124.227 171.196C124.227 171.196 118.645 167.142 113.928 170.1C113.928 170.1 118.022 168.21 124.227 171.196Z" fill="url(#paint73_linear_2_3)"/>
<path id="Vector_148" style="mix-blend-mode:multiply" d="M49.0529 210.376C49.0649 208.991 48.5955 207.642 47.7206 206.549C48.3549 206.957 48.8839 207.502 49.2667 208.141C49.6495 208.78 49.8758 209.496 49.9282 210.234L49.0529 210.376Z" fill="url(#paint74_linear_2_3)"/>
<path id="Vector_149" style="mix-blend-mode:multiply" d="M41.9245 217.908L33.7068 218.654C33.7068 218.654 36.391 217.548 41.9245 217.908Z" fill="url(#paint75_linear_2_3)"/>
</g>
<g id="luz">
<path id="Vector_150" opacity="0.36" fill-rule="evenodd" clip-rule="evenodd" d="M259.494 125.179L191.607 378H389L327.077 128.989" fill="#FFFC80"/>
</g>
<g id="lamparaconluz">
<g id="lampara">
<path id="Vector_151" fill-rule="evenodd" clip-rule="evenodd" d="M250.422 133.358C250.422 133.358 280.271 139.408 342.181 133.634C342.17 133.634 308.651 116.432 250.422 133.358Z" fill="url(#paint76_linear_2_3)"/>
<path id="Vector_152" fill-rule="evenodd" clip-rule="evenodd" d="M261.378 60.0789L263.047 55.4107C263.047 55.4107 292.023 39.7383 328.738 55.4107L329.412 60.0789C329.412 60.0789 289.05 50.9103 261.378 60.0789Z" fill="url(#paint77_linear_2_3)"/>
<path id="Vector_153" fill-rule="evenodd" clip-rule="evenodd" d="M301.462 370.271L294.036 96.2565H297.803L307.401 370.271H301.462Z" fill="url(#paint78_linear_2_3)"/>
<path id="Vector_154" fill-rule="evenodd" clip-rule="evenodd" d="M250.422 133.358L261.378 60.0789C261.378 60.0789 295.395 45.9165 329.412 60.0789L342.17 133.634C342.17 133.634 297.606 120.193 250.422 133.358Z" fill="url(#paint79_linear_2_3)"/>
<g id="Vector_155" style="mix-blend-mode:soft-light">
<g id="Vector_156" style="mix-blend-mode:soft-light">
<path fill-rule="evenodd" clip-rule="evenodd" d="M269.017 57.5819V52.894L277.85 50.3576V55.5489L269.017 57.5819Z" fill="white"/>
</g>
</g>
<path id="Vector_156_2" fill-rule="evenodd" clip-rule="evenodd" d="M254.535 105.872C254.535 105.872 301.586 90.486 338.024 109.741L334.144 87.4269C334.144 87.4269 301.774 73.7479 256.646 91.7493L254.535 105.872Z" fill="url(#paint80_linear_2_3)"/>
<path id="Vector_157" fill-rule="evenodd" clip-rule="evenodd" d="M252.965 116.353C252.965 116.353 298.291 100.7 339.196 116.353L342.192 133.634C342.192 133.634 306.649 121.515 250.433 133.358L252.965 116.353Z" fill="url(#paint81_linear_2_3)"/>
<path id="Vector_158" fill-rule="evenodd" clip-rule="evenodd" d="M281.521 128.571L280.26 175.667H283.013L283.61 128.424L281.521 128.571Z" fill="url(#paint82_linear_2_3)"/>
<path id="Vector_159" style="mix-blend-mode:multiply" opacity="0.3" fill-rule="evenodd" clip-rule="evenodd" d="M250.422 133.358C250.422 133.358 287.745 124.772 306.517 114.281C318.424 107.629 316.467 51.1768 316.467 51.1768L328.782 55.4107L342.214 133.634C342.214 133.634 310.696 121.515 250.422 133.358Z" fill="url(#paint83_linear_2_3)"/>
</g>
</g>
<path id="escritorio" d="M389 369.864H0V378H389V369.864Z" fill="url(#paint84_linear_2_3)"/>
</g>
</g>
<defs>
<linearGradient id="paint0_linear_2_3" x1="136.17" y1="230.325" x2="136.17" y2="147.42" gradientUnits="userSpaceOnUse">
<stop stop-color="#FFB595"/>
<stop offset="0.98" stop-color="#FFC2A9"/>
</linearGradient>
<linearGradient id="paint1_linear_2_3" x1="141.538" y1="279.54" x2="141.538" y2="223.341" gradientUnits="userSpaceOnUse">
<stop offset="0.02" stop-color="#FFA67F"/>
<stop offset="1" stop-color="#FF8B7C"/>
</linearGradient>
<linearGradient id="paint2_linear_2_3" x1="137.453" y1="177.906" x2="137.453" y2="149.924" gradientUnits="userSpaceOnUse">
<stop offset="0.02" stop-color="white"/>
<stop offset="0.99" stop-color="#F29DC8"/>
</linearGradient>
<linearGradient id="paint3_linear_2_3" x1="170.304" y1="205.547" x2="170.304" y2="182.678" gradientUnits="userSpaceOnUse">
<stop offset="0.02" stop-color="#FFA67F"/>
<stop offset="1" stop-color="#FF8B7C"/>
</linearGradient>
<linearGradient id="paint4_linear_2_3" x1="106.907" y1="209.28" x2="106.907" y2="188.528" gradientUnits="userSpaceOnUse">
<stop offset="0.02" stop-color="#FFA67F"/>
<stop offset="1" stop-color="#FF8B7C"/>
</linearGradient>
<linearGradient id="paint5_linear_2_3" x1="170.255" y1="200.85" x2="170.255" y2="187.063" gradientUnits="userSpaceOnUse">
<stop offset="0.02" stop-color="white"/>
<stop offset="0.99" stop-color="#F29DC8"/>
</linearGradient>
<linearGradient id="paint6_linear_2_3" x1="107.014" y1="204.885" x2="107.014" y2="192.742" gradientUnits="userSpaceOnUse">
<stop offset="0.02" stop-color="white"/>
<stop offset="0.99" stop-color="#F29DC8"/>
</linearGradient>
<linearGradient id="paint7_linear_2_3" x1="140.001" y1="192.629" x2="130.815" y2="132.946" gradientUnits="userSpaceOnUse">
<stop stop-color="#3E2987"/>
<stop offset="0.57" stop-color="#2C2F90"/>
<stop offset="1" stop-color="#243294"/>
</linearGradient>
<linearGradient id="paint8_linear_2_3" x1="141.625" y1="369.486" x2="141.625" y2="245.615" gradientUnits="userSpaceOnUse">
<stop stop-color="#FF6686"/>
<stop offset="1" stop-color="#FF7C89"/>
</linearGradient>
<linearGradient id="paint9_linear_2_3" x1="146.526" y1="369.486" x2="146.526" y2="238.546" gradientUnits="userSpaceOnUse">
<stop stop-color="#2B2583"/>
<stop offset="1" stop-color="#482C97"/>
</linearGradient>
<linearGradient id="paint10_linear_2_3" x1="61.637" y1="369.864" x2="61.637" y2="270.922" gradientUnits="userSpaceOnUse">
<stop stop-color="#26258A"/>
<stop offset="1" stop-color="#3C2C95"/>
</linearGradient>
<linearGradient id="paint11_linear_2_3" x1="52.6317" y1="286.496" x2="52.6317" y2="187.743" gradientUnits="userSpaceOnUse">
<stop offset="0.02" stop-color="#FFC2A0"/>
<stop offset="1" stop-color="#FFA195"/>
</linearGradient>
<linearGradient id="paint12_linear_2_3" x1="46.6216" y1="320.346" x2="46.6216" y2="274.967" gradientUnits="userSpaceOnUse">
<stop stop-color="#FF6686"/>
<stop offset="1" stop-color="#FF7C89"/>
</linearGradient>
<linearGradient id="paint13_linear_2_3" x1="227.808" y1="369.864" x2="227.808" y2="267.775" gradientUnits="userSpaceOnUse">
<stop stop-color="#26258A"/>
<stop offset="1" stop-color="#3C2C95"/>
</linearGradient>
<linearGradient id="paint14_linear_2_3" x1="139.846" y1="165.555" x2="142.617" y2="165.555" gradientUnits="userSpaceOnUse">
<stop stop-color="#8453B8"/>
<stop offset="0.23" stop-color="#7755BA"/>
<stop offset="0.7" stop-color="#6157BC"/>
<stop offset="1" stop-color="#5958BD"/>
</linearGradient>
<linearGradient id="paint15_linear_2_3" x1="134.973" y1="194.368" x2="134.973" y2="168.427" gradientUnits="userSpaceOnUse">
<stop offset="0.02" stop-color="white"/>
<stop offset="0.99" stop-color="#F29DC8"/>
</linearGradient>
<linearGradient id="paint16_linear_2_3" x1="113.112" y1="182.99" x2="126.104" y2="182.99" gradientUnits="userSpaceOnUse">
<stop offset="0.02" stop-color="white"/>
<stop offset="0.99" stop-color="#EA9DC8"/>
</linearGradient>
<linearGradient id="paint17_linear_2_3" x1="143.395" y1="179.323" x2="156.232" y2="179.323" gradientUnits="userSpaceOnUse">
<stop offset="0.02" stop-color="white"/>
<stop offset="0.99" stop-color="#EA9DC8"/>
</linearGradient>
<linearGradient id="paint18_linear_2_3" x1="140.429" y1="194.708" x2="145.331" y2="194.708" gradientUnits="userSpaceOnUse">
<stop offset="0.02" stop-color="white"/>
<stop offset="0.99" stop-color="#EA9DC8"/>
</linearGradient>
<linearGradient id="paint19_linear_2_3" x1="148.229" y1="203.071" x2="153.869" y2="203.071" gradientUnits="userSpaceOnUse">
<stop offset="0.02" stop-color="white"/>
<stop offset="0.99" stop-color="#F29DC8"/>
</linearGradient>
<linearGradient id="paint20_linear_2_3" x1="139.476" y1="216.594" x2="139.476" y2="212.011" gradientUnits="userSpaceOnUse">
<stop offset="0.02" stop-color="white"/>
<stop offset="0.99" stop-color="#F29DC8"/>
</linearGradient>
<linearGradient id="paint21_linear_2_3" x1="150.067" y1="184.625" x2="150.067" y2="179.805" gradientUnits="userSpaceOnUse">
<stop offset="0.02" stop-color="#E0B3D1"/>
<stop offset="0.99" stop-color="#C2798B"/>
</linearGradient>
<linearGradient id="paint22_linear_2_3" x1="120.221" y1="188.877" x2="120.221" y2="184.058" gradientUnits="userSpaceOnUse">
<stop offset="0.02" stop-color="#E0B3D1"/>
<stop offset="0.99" stop-color="#C2798B"/>
</linearGradient>
<linearGradient id="paint23_linear_2_3" x1="149.678" y1="171.64" x2="149.678" y2="162.512" gradientUnits="userSpaceOnUse">
<stop stop-color="#B877B8"/>
<stop offset="0.23" stop-color="#9A6DBA"/>
<stop offset="0.56" stop-color="#7762BB"/>
<stop offset="0.83" stop-color="#615BBD"/>
<stop offset="1" stop-color="#5958BD"/>
</linearGradient>
<linearGradient id="paint24_linear_2_3" x1="117.974" y1="175.392" x2="117.974" y2="165.148" gradientUnits="userSpaceOnUse">
<stop stop-color="#B877B8"/>
<stop offset="0.23" stop-color="#9A6DBA"/>
<stop offset="0.56" stop-color="#7762BB"/>
<stop offset="0.83" stop-color="#615BBD"/>
<stop offset="1" stop-color="#5958BD"/>
</linearGradient>
<linearGradient id="paint25_linear_2_3" x1="157.642" y1="166.679" x2="170.868" y2="166.679" gradientUnits="userSpaceOnUse">
<stop offset="0.02" stop-color="white"/>
<stop offset="0.99" stop-color="#C2798B"/>
</linearGradient>
<linearGradient id="paint26_linear_2_3" x1="102.579" y1="169.25" x2="115.115" y2="169.25" gradientUnits="userSpaceOnUse">
<stop offset="0.01" stop-color="#C2798B"/>
<stop offset="0.98" stop-color="white"/>
</linearGradient>
<linearGradient id="paint27_linear_2_3" x1="101.801" y1="159.8" x2="116.262" y2="159.8" gradientUnits="userSpaceOnUse">
<stop offset="0.01" stop-color="#C2798B"/>
<stop offset="0.98" stop-color="white"/>
</linearGradient>
<linearGradient id="paint28_linear_2_3" x1="141.878" y1="157.966" x2="139.469" y2="142.324" gradientUnits="userSpaceOnUse">
<stop stop-color="#3E2987"/>
<stop offset="0.57" stop-color="#2C2F90"/>
<stop offset="1" stop-color="#243294"/>
</linearGradient>
<linearGradient id="paint29_linear_2_3" x1="167.716" y1="162.467" x2="168.378" y2="151.801" gradientUnits="userSpaceOnUse">
<stop stop-color="#3E2987"/>
<stop offset="0.57" stop-color="#2C2F90"/>
<stop offset="1" stop-color="#243294"/>
</linearGradient>
<linearGradient id="paint30_linear_2_3" x1="128.35" y1="198.497" x2="133.767" y2="198.497" gradientUnits="userSpaceOnUse">
<stop offset="0.02" stop-color="white"/>
<stop offset="0.99" stop-color="#D172A6"/>
</linearGradient>
<linearGradient id="paint31_linear_2_3" x1="118.12" y1="198.771" x2="118.12" y2="176.29" gradientUnits="userSpaceOnUse">
<stop stop-color="#26258A"/>
<stop offset="1" stop-color="#3C2C95"/>
</linearGradient>
<linearGradient id="paint32_linear_2_3" x1="155.31" y1="194.15" x2="151.075" y2="171.711" gradientUnits="userSpaceOnUse">
<stop stop-color="#26258A"/>
<stop offset="1" stop-color="#3C2C95"/>
</linearGradient>
<linearGradient id="paint33_linear_2_3" x1="134.779" y1="180.901" x2="134.779" y2="177.102" gradientUnits="userSpaceOnUse">
<stop stop-color="#26258A"/>
<stop offset="1" stop-color="#3C2C95"/>
</linearGradient>
<linearGradient id="paint34_linear_2_3" x1="168.145" y1="184.058" x2="168.145" y2="174.863" gradientUnits="userSpaceOnUse">
<stop stop-color="#26258A"/>
<stop offset="1" stop-color="#3C2C95"/>
</linearGradient>
<linearGradient id="paint35_linear_2_3" x1="136.179" y1="160.735" x2="134.717" y2="151.244" gradientUnits="userSpaceOnUse">
<stop stop-color="#3E2987"/>
<stop offset="0.57" stop-color="#2C2F90"/>
<stop offset="1" stop-color="#243294"/>
</linearGradient>
<linearGradient id="paint36_linear_2_3" x1="132.62" y1="264.298" x2="132.62" y2="226.46" gradientUnits="userSpaceOnUse">
<stop offset="0.02" stop-color="white"/>
<stop offset="0.99" stop-color="#F29DC8"/>
</linearGradient>
<linearGradient id="paint37_linear_2_3" x1="106.499" y1="369.608" x2="106.499" y2="241.381" gradientUnits="userSpaceOnUse">
<stop stop-color="#38328A"/>
<stop offset="1" stop-color="#5C43A2"/>
</linearGradient>
<linearGradient id="paint38_linear_2_3" x1="176.421" y1="369.486" x2="176.421" y2="238.546" gradientUnits="userSpaceOnUse">
<stop stop-color="#38328A"/>
<stop offset="1" stop-color="#5C43A2"/>
</linearGradient>
<linearGradient id="paint39_linear_2_3" x1="130.091" y1="309.204" x2="130.091" y2="257.399" gradientUnits="userSpaceOnUse">
<stop offset="0.02" stop-color="white"/>
<stop offset="0.99" stop-color="#EA8CC1"/>
</linearGradient>
<linearGradient id="paint40_linear_2_3" x1="154.161" y1="298.195" x2="154.161" y2="260.537" gradientUnits="userSpaceOnUse">
<stop offset="0.02" stop-color="white"/>
<stop offset="0.99" stop-color="#EA8CC1"/>
</linearGradient>
<linearGradient id="paint41_linear_2_3" x1="44.0251" y1="250.104" x2="44.0251" y2="202.154" gradientUnits="userSpaceOnUse">
<stop offset="0.01" stop-color="#EA9DC8"/>
<stop offset="0.98" stop-color="#FFDBD6"/>
</linearGradient>
<linearGradient id="paint42_linear_2_3" x1="50.9104" y1="210.659" x2="50.9104" y2="197.439" gradientUnits="userSpaceOnUse">
<stop stop-color="#FFB595"/>
<stop offset="0.98" stop-color="#FFC290"/>
</linearGradient>
<linearGradient id="paint43_linear_2_3" x1="41.3313" y1="218.919" x2="41.3313" y2="206.549" gradientUnits="userSpaceOnUse">
<stop stop-color="#FFB595"/>
<stop offset="0.98" stop-color="#FFC290"/>
</linearGradient>
<linearGradient id="paint44_linear_2_3" x1="35.4379" y1="224.447" x2="35.4379" y2="217.917" gradientUnits="userSpaceOnUse">
<stop stop-color="#FFB595"/>
<stop offset="0.98" stop-color="#FFC290"/>
</linearGradient>
<linearGradient id="paint45_linear_2_3" x1="55.1796" y1="266.953" x2="55.1796" y2="251.436" gradientUnits="userSpaceOnUse">
<stop offset="0.02" stop-color="white"/>
<stop offset="0.99" stop-color="#EA9DC8"/>
</linearGradient>
<linearGradient id="paint46_linear_2_3" x1="50.463" y1="250.359" x2="50.463" y2="235.22" gradientUnits="userSpaceOnUse">
<stop offset="0.02" stop-color="white"/>
<stop offset="0.99" stop-color="#EA9DC8"/>
</linearGradient>
<linearGradient id="paint47_linear_2_3" x1="61.1994" y1="242.005" x2="61.1994" y2="226.46" gradientUnits="userSpaceOnUse">
<stop offset="0.01" stop-color="#EA9DC8"/>
<stop offset="0.98" stop-color="white"/>
</linearGradient>
<linearGradient id="paint48_linear_2_3" x1="80.3289" y1="296.749" x2="92.1248" y2="296.749" gradientUnits="userSpaceOnUse">
<stop offset="0.01" stop-color="#C2798B"/>
<stop offset="0.98" stop-color="white"/>
</linearGradient>
<linearGradient id="paint49_linear_2_3" x1="69.1934" y1="341.381" x2="69.1934" y2="309.204" gradientUnits="userSpaceOnUse">
<stop offset="0.02" stop-color="white"/>
<stop offset="0.99" stop-color="#C2798B"/>
</linearGradient>
<linearGradient id="paint50_linear_2_3" x1="28.4651" y1="322.132" x2="54.1974" y2="322.132" gradientUnits="userSpaceOnUse">
<stop offset="0.01" stop-color="#C2798B"/>
<stop offset="0.98" stop-color="white"/>
</linearGradient>
<linearGradient id="paint51_linear_2_3" x1="62.5317" y1="356.237" x2="62.5317" y2="296.078" gradientUnits="userSpaceOnUse">
<stop offset="0.02" stop-color="white"/>
<stop offset="0.99" stop-color="#C2798B"/>
</linearGradient>
<linearGradient id="paint52_linear_2_3" x1="198.75" y1="286.552" x2="212.725" y2="286.552" gradientUnits="userSpaceOnUse">
<stop offset="0.02" stop-color="white"/>
<stop offset="0.99" stop-color="#C2798B"/>
</linearGradient>
<linearGradient id="paint53_linear_2_3" x1="202.222" y1="321.413" x2="207.619" y2="321.413" gradientUnits="userSpaceOnUse">
<stop offset="0.01" stop-color="#C2798B"/>
<stop offset="0.98" stop-color="white"/>
</linearGradient>
<linearGradient id="paint54_linear_2_3" x1="183.608" y1="341.306" x2="198.75" y2="341.306" gradientUnits="userSpaceOnUse">
<stop offset="0.01" stop-color="#C2798B"/>
<stop offset="0.98" stop-color="white"/>
</linearGradient>
<linearGradient id="paint55_linear_2_3" x1="205.168" y1="340.947" x2="243.679" y2="340.947" gradientUnits="userSpaceOnUse">
<stop offset="0.01" stop-color="#C2798B"/>
<stop offset="0.98" stop-color="white"/>
</linearGradient>
<linearGradient id="paint56_linear_2_3" x1="212.112" y1="341.665" x2="243.193" y2="341.665" gradientUnits="userSpaceOnUse">
<stop offset="0.01" stop-color="#C2798B"/>
<stop offset="0.98" stop-color="white"/>
</linearGradient>
<linearGradient id="paint57_linear_2_3" x1="200.87" y1="341.665" x2="200.87" y2="292.496" gradientUnits="userSpaceOnUse">
<stop offset="0.01" stop-color="#C2798B"/>
<stop offset="0.98" stop-color="white"/>
</linearGradient>
<linearGradient id="paint58_linear_2_3" x1="222.265" y1="357.673" x2="222.265" y2="345.142" gradientUnits="userSpaceOnUse">
<stop offset="0.02" stop-color="#FFA67F"/>
<stop offset="1" stop-color="#FF8B7C"/>
</linearGradient>
<linearGradient id="paint59_linear_2_3" x1="232.243" y1="370.157" x2="232.243" y2="341.759" gradientUnits="userSpaceOnUse">
<stop stop-color="#2B2583"/>
<stop offset="1" stop-color="#231868"/>
</linearGradient>
<linearGradient id="paint60_linear_2_3" x1="203.593" y1="369.136" x2="203.593" y2="357.645" gradientUnits="userSpaceOnUse">
<stop offset="0.02" stop-color="#FFC2A0"/>
<stop offset="1" stop-color="#FFA195"/>
</linearGradient>
<linearGradient id="paint61_linear_2_3" x1="223.159" y1="370.204" x2="223.159" y2="350.5" gradientUnits="userSpaceOnUse">
<stop stop-color="#C50B79"/>
<stop offset="1" stop-color="#E51160"/>
</linearGradient>
<linearGradient id="paint62_linear_2_3" x1="226.855" y1="367.047" x2="226.855" y2="341.674" gradientUnits="userSpaceOnUse">
<stop offset="0.02" stop-color="#FFC2A0"/>
<stop offset="1" stop-color="#FFA195"/>
</linearGradient>
<linearGradient id="paint63_linear_2_3" x1="138.115" y1="369.864" x2="138.115" y2="292.941" gradientUnits="userSpaceOnUse">
<stop stop-color="#C9B6E9"/>
<stop offset="1" stop-color="#BBABD1"/>
</linearGradient>
<linearGradient id="paint64_linear_2_3" x1="138.115" y1="298.998" x2="138.115" y2="290.814" gradientUnits="userSpaceOnUse">
<stop stop-color="#D8CAEF"/>
<stop offset="1" stop-color="#EADEF4"/>
</linearGradient>
<linearGradient id="paint65_linear_2_3" x1="233.964" y1="356.199" x2="233.964" y2="349.017" gradientUnits="userSpaceOnUse">
<stop offset="0.02" stop-color="white"/>
<stop offset="0.99" stop-color="#EA9DC8"/>
</linearGradient>
<linearGradient id="paint66_linear_2_3" x1="240.402" y1="362.086" x2="240.402" y2="356.955" gradientUnits="userSpaceOnUse">
<stop offset="0.02" stop-color="white"/>
<stop offset="0.99" stop-color="#EA9DC8"/>
</linearGradient>
<linearGradient id="paint67_linear_2_3" x1="179.144" y1="270.922" x2="179.144" y2="248.27" gradientUnits="userSpaceOnUse">
<stop offset="0.02" stop-color="white"/>
<stop offset="0.99" stop-color="#C2798B"/>
</linearGradient>
<linearGradient id="paint68_linear_2_3" x1="108.57" y1="273.521" x2="108.57" y2="244.197" gradientUnits="userSpaceOnUse">
<stop offset="0.02" stop-color="white"/>
<stop offset="0.99" stop-color="#C2798B"/>
</linearGradient>
<linearGradient id="paint69_linear_2_3" x1="45.5033" y1="250.671" x2="45.5033" y2="230.174" gradientUnits="userSpaceOnUse">
<stop offset="0.02" stop-color="white"/>
<stop offset="0.99" stop-color="#F29DC8"/>
</linearGradient>
<linearGradient id="paint70_linear_2_3" x1="142.977" y1="166.887" x2="153.917" y2="166.887" gradientUnits="userSpaceOnUse">
<stop offset="0.01" stop-color="#F29DC8"/>
<stop offset="0.98" stop-color="white"/>
</linearGradient>
<linearGradient id="paint71_linear_2_3" x1="145.01" y1="167.851" x2="157.146" y2="167.851" gradientUnits="userSpaceOnUse">
<stop offset="0.01" stop-color="#F29DC8"/>
<stop offset="0.98" stop-color="white"/>
</linearGradient>
<linearGradient id="paint72_linear_2_3" x1="118.022" y1="169.193" x2="125.385" y2="169.193" gradientUnits="userSpaceOnUse">
<stop offset="0.02" stop-color="white"/>
<stop offset="0.99" stop-color="#F29DC8"/>
</linearGradient>
<linearGradient id="paint73_linear_2_3" x1="113.928" y1="170.119" x2="124.227" y2="170.119" gradientUnits="userSpaceOnUse">
<stop offset="0.02" stop-color="white"/>
<stop offset="0.99" stop-color="#F29DC8"/>
</linearGradient>
<linearGradient id="paint74_linear_2_3" x1="48.8195" y1="210.376" x2="48.8195" y2="206.549" gradientUnits="userSpaceOnUse">
<stop offset="0.01" stop-color="#EA9DC8"/>
<stop offset="0.98" stop-color="#FFDBD6"/>
</linearGradient>
<linearGradient id="paint75_linear_2_3" x1="37.8108" y1="218.654" x2="37.8108" y2="217.841" gradientUnits="userSpaceOnUse">
<stop offset="0.01" stop-color="#EA9DC8"/>
<stop offset="0.98" stop-color="#FFDBD6"/>
</linearGradient>
<linearGradient id="paint76_linear_2_3" x1="296.302" y1="136.131" x2="296.302" y2="125.907" gradientUnits="userSpaceOnUse">
<stop offset="0.01" stop-color="#791D36"/>
<stop offset="0.98" stop-color="#A64021"/>
</linearGradient>
<linearGradient id="paint77_linear_2_3" x1="295.395" y1="60.0789" x2="295.395" y2="48.443" gradientUnits="userSpaceOnUse">
<stop offset="0.01" stop-color="#533F9C"/>
<stop offset="1" stop-color="#292686"/>
</linearGradient>
<linearGradient id="paint78_linear_2_3" x1="294.036" y1="233.259" x2="307.401" y2="233.259" gradientUnits="userSpaceOnUse">
<stop offset="0.02" stop-color="#523E63"/>
<stop offset="0.99" stop-color="#24052E"/>
</linearGradient>
<linearGradient id="paint79_linear_2_3" x1="296.302" y1="133.634" x2="296.302" y2="53.7823" gradientUnits="userSpaceOnUse">
<stop stop-color="#FFC7CB"/>
<stop offset="1" stop-color="white"/>
</linearGradient>
<linearGradient id="paint80_linear_2_3" x1="296.279" y1="109.741" x2="296.279" y2="82.423" gradientUnits="userSpaceOnUse">
<stop offset="0.01" stop-color="#25267A"/>
<stop offset="1" stop-color="#2C278D"/>
</linearGradient>
<linearGradient id="paint81_linear_2_3" x1="296.301" y1="133.634" x2="296.301" y2="109.396" gradientUnits="userSpaceOnUse">
<stop stop-color="#FF7688"/>
<stop offset="1" stop-color="#533E9C"/>
</linearGradient>
<linearGradient id="paint82_linear_2_3" x1="281.941" y1="175.658" x2="281.941" y2="128.424" gradientUnits="userSpaceOnUse">
<stop offset="0.02" stop-color="#523E63"/>
<stop offset="0.99" stop-color="#24052E"/>
</linearGradient>
<linearGradient id="paint83_linear_2_3" x1="296.302" y1="133.634" x2="296.302" y2="51.1768" gradientUnits="userSpaceOnUse">
<stop stop-color="#892F74"/>
<stop offset="1" stop-color="#D69386"/>
</linearGradient>
<linearGradient id="paint84_linear_2_3" x1="194.5" y1="378" x2="194.5" y2="369.864" gradientUnits="userSpaceOnUse">
<stop stop-color="#1E1D1F"/>
<stop offset="0.557292" stop-color="#1E1D1F"/>
</linearGradient>
<clipPath id="clip0_2_3">
<rect width="389" height="378" fill="white"/>
</clipPath>
</defs>
</svg>
